<?xml version="1.0" encoding="utf-8"?>
<!-- Generator: Adobe Illustrator 16.0.3, SVG Export Plug-In . SVG Version: 6.00 Build 0)  -->
<!DOCTYPE svg PUBLIC "-//W3C//DTD SVG 1.1//EN" "http://www.w3.org/Graphics/SVG/1.1/DTD/svg11.dtd">
<svg version="1.1" id="レイヤー_1" xmlns="http://www.w3.org/2000/svg" xmlns:xlink="http://www.w3.org/1999/xlink" x="0px"
	 y="0px" width="510px" height="510px" viewBox="0 0 510 510" enable-background="new 0 0 510 510" xml:space="preserve">
<rect x="119.5" y="90.5" stroke="#000000" stroke-miterlimit="10" width="30" height="30"/>
<rect x="149.5" y="90.5" stroke="#000000" stroke-miterlimit="10" width="30" height="30"/>
<rect x="179.5" y="90.5" stroke="#000000" stroke-miterlimit="10" width="30" height="30"/>
<rect x="299.5" y="90.5" stroke="#000000" stroke-miterlimit="10" width="30" height="30"/>
<rect x="329.5" y="90.5" stroke="#000000" stroke-miterlimit="10" width="30" height="30"/>
<rect x="359.5" y="90.5" stroke="#000000" stroke-miterlimit="10" width="30" height="30"/>
<rect x="89.5" y="120.5" stroke="#000000" stroke-miterlimit="10" width="30" height="30"/>
<rect x="119.5" y="120.5" stroke="#000000" stroke-miterlimit="10" width="30" height="30"/>
<rect x="149.5" y="120.5" stroke="#000000" stroke-miterlimit="10" width="30" height="30"/>
<rect x="179.5" y="120.5" stroke="#000000" stroke-miterlimit="10" width="30" height="30"/>
<rect x="209.5" y="120.5" stroke="#000000" stroke-miterlimit="10" width="30" height="30"/>
<rect x="269.5" y="120.5" stroke="#000000" stroke-miterlimit="10" width="30" height="30"/>
<rect x="299.5" y="120.5" stroke="#000000" stroke-miterlimit="10" width="30" height="30"/>
<rect x="329.5" y="120.5" stroke="#000000" stroke-miterlimit="10" width="30" height="30"/>
<rect x="359.5" y="120.5" stroke="#000000" stroke-miterlimit="10" width="30" height="30"/>
<rect x="389.5" y="120.5" stroke="#000000" stroke-miterlimit="10" width="30" height="30"/>
<rect x="59.5" y="150.5" stroke="#000000" stroke-miterlimit="10" width="30" height="30"/>
<rect x="89.5" y="150.5" stroke="#000000" stroke-miterlimit="10" width="30" height="30"/>
<rect x="119.5" y="150.5" stroke="#000000" stroke-miterlimit="10" width="30" height="30"/>
<rect x="149.5" y="150.5" fill="#FF0000" stroke="#FF0000" stroke-miterlimit="10" width="30" height="30"/>
<rect x="179.5" y="150.5" fill="#FF0000" stroke="#FF0000" stroke-miterlimit="10" width="30" height="30"/>
<rect x="209.5" y="150.5" stroke="#000000" stroke-miterlimit="10" width="30" height="30"/>
<rect x="239.5" y="150.5" stroke="#000000" stroke-miterlimit="10" width="30" height="30"/>
<rect x="269.5" y="150.5" stroke="#000000" stroke-miterlimit="10" width="30" height="30"/>
<rect x="299.5" y="150.5" fill="#FF0000" stroke="#FF0000" stroke-miterlimit="10" width="30" height="30"/>
<rect x="329.5" y="150.5" fill="#FF0000" stroke="#FF0000" stroke-miterlimit="10" width="30" height="30"/>
<rect x="359.5" y="150.5" stroke="#000000" stroke-miterlimit="10" width="30" height="30"/>
<rect x="389.5" y="150.5" stroke="#000000" stroke-miterlimit="10" width="30" height="30"/>
<rect x="419.5" y="150.5" stroke="#000000" stroke-miterlimit="10" width="30" height="30"/>
<rect x="59.5" y="180.5" stroke="#000000" stroke-miterlimit="10" width="30" height="30"/>
<rect x="89.5" y="180.5" stroke="#000000" stroke-miterlimit="10" width="30" height="30"/>
<rect x="119.5" y="180.5" fill="#FF0000" stroke="#FF0000" stroke-miterlimit="10" width="30" height="30"/>
<rect x="149.5" y="180.5" fill="#FF0000" stroke="#FF0000" stroke-miterlimit="10" width="30" height="30"/>
<rect x="179.5" y="180.5" fill="#FF0000" stroke="#FF0000" stroke-miterlimit="10" width="30" height="30"/>
<rect x="209.5" y="180.5" fill="#FF0000" stroke="#FF0000" stroke-miterlimit="10" width="30" height="30"/>
<rect x="239.5" y="180.5" stroke="#000000" stroke-miterlimit="10" width="30" height="30"/>
<rect x="269.5" y="180.5" fill="#FF0000" stroke="#FF0000" stroke-miterlimit="10" width="30" height="30"/>
<rect x="299.5" y="180.5" fill="#FF0000" stroke="#FF0000" stroke-miterlimit="10" width="30" height="30"/>
<rect x="329.5" y="180.5" fill="#FF0000" stroke="#FF0000" stroke-miterlimit="10" width="30" height="30"/>
<rect x="359.5" y="180.5" fill="#FF0000" stroke="#FF0000" stroke-miterlimit="10" width="30" height="30"/>
<rect x="389.5" y="180.5" stroke="#000000" stroke-miterlimit="10" width="30" height="30"/>
<rect x="419.5" y="180.5" stroke="#000000" stroke-miterlimit="10" width="30" height="30"/>
<rect x="59.5" y="210.5" stroke="#000000" stroke-miterlimit="10" width="30" height="30"/>
<rect x="89.5" y="210.5" stroke="#000000" stroke-miterlimit="10" width="30" height="30"/>
<rect x="119.5" y="210.5" fill="#FF0000" stroke="#FF0000" stroke-miterlimit="10" width="30" height="30"/>
<rect x="149.5" y="210.5" fill="#FF0000" stroke="#FF0000" stroke-miterlimit="10" width="30" height="30"/>
<rect x="179.5" y="210.5" fill="#FF0000" stroke="#FF0000" stroke-miterlimit="10" width="30" height="30"/>
<rect x="209.5" y="210.5" fill="#FF0000" stroke="#FF0000" stroke-miterlimit="10" width="30" height="30"/>
<rect x="239.5" y="210.5" fill="#FF0000" stroke="#FF0000" stroke-miterlimit="10" width="30" height="30"/>
<rect x="269.5" y="210.5" fill="#FF0000" stroke="#FF0000" stroke-miterlimit="10" width="30" height="30"/>
<rect x="299.5" y="210.5" fill="#FF0000" stroke="#FF0000" stroke-miterlimit="10" width="30" height="30"/>
<rect x="329.5" y="210.5" fill="#FF0000" stroke="#FF0000" stroke-miterlimit="10" width="30" height="30"/>
<rect x="359.5" y="210.5" fill="#FF0000" stroke="#FF0000" stroke-miterlimit="10" width="30" height="30"/>
<rect x="389.5" y="210.5" stroke="#000000" stroke-miterlimit="10" width="30" height="30"/>
<rect x="419.5" y="210.5" stroke="#000000" stroke-miterlimit="10" width="30" height="30"/>
<rect x="59.5" y="240.5" stroke="#000000" stroke-miterlimit="10" width="30" height="30"/>
<rect x="89.5" y="240.5" stroke="#000000" stroke-miterlimit="10" width="30" height="30"/>
<rect x="119.5" y="240.5" stroke="#000000" stroke-miterlimit="10" width="30" height="30"/>
<rect x="149.5" y="240.5" fill="#FF0000" stroke="#FF0000" stroke-miterlimit="10" width="30" height="30"/>
<rect x="179.5" y="240.5" fill="#FF0000" stroke="#FF0000" stroke-miterlimit="10" width="30" height="30"/>
<rect x="209.5" y="240.5" fill="#FF0000" stroke="#FF0000" stroke-miterlimit="10" width="30" height="30"/>
<rect x="239.5" y="240.5" fill="#FF0000" stroke="#FF0000" stroke-miterlimit="10" width="30" height="30"/>
<rect x="269.5" y="240.5" fill="#FF0000" stroke="#FF0000" stroke-miterlimit="10" width="30" height="30"/>
<rect x="299.5" y="240.5" fill="#FF0000" stroke="#FF0000" stroke-miterlimit="10" width="30" height="30"/>
<rect x="329.5" y="240.5" fill="#FF0000" stroke="#FF0000" stroke-miterlimit="10" width="30" height="30"/>
<rect x="359.5" y="240.5" stroke="#000000" stroke-miterlimit="10" width="30" height="30"/>
<rect x="389.5" y="240.5" stroke="#000000" stroke-miterlimit="10" width="30" height="30"/>
<rect x="419.5" y="240.5" stroke="#000000" stroke-miterlimit="10" width="30" height="30"/>
<rect x="89.5" y="270.5" stroke="#000000" stroke-miterlimit="10" width="30" height="30"/>
<rect x="119.5" y="270.5" stroke="#000000" stroke-miterlimit="10" width="30" height="30"/>
<rect x="149.5" y="270.5" stroke="#000000" stroke-miterlimit="10" width="30" height="30"/>
<rect x="179.5" y="270.5" fill="#FF0000" stroke="#FF0000" stroke-miterlimit="10" width="30" height="30"/>
<rect x="209.5" y="270.5" fill="#FF0000" stroke="#FF0000" stroke-miterlimit="10" width="30" height="30"/>
<rect x="239.5" y="270.5" fill="#FF0000" stroke="#FF0000" stroke-miterlimit="10" width="30" height="30"/>
<rect x="269.5" y="270.5" fill="#FF0000" stroke="#FF0000" stroke-miterlimit="10" width="30" height="30"/>
<rect x="299.5" y="270.5" fill="#FF0000" stroke="#FF0000" stroke-miterlimit="10" width="30" height="30"/>
<rect x="329.5" y="270.5" stroke="#000000" stroke-miterlimit="10" width="30" height="30"/>
<rect x="359.5" y="270.5" stroke="#000000" stroke-miterlimit="10" width="30" height="30"/>
<rect x="389.5" y="270.5" stroke="#000000" stroke-miterlimit="10" width="30" height="30"/>
<rect x="119.5" y="300.5" stroke="#000000" stroke-miterlimit="10" width="30" height="30"/>
<rect x="149.5" y="300.5" stroke="#000000" stroke-miterlimit="10" width="30" height="30"/>
<rect x="179.5" y="300.5" stroke="#000000" stroke-miterlimit="10" width="30" height="30"/>
<rect x="209.5" y="300.5" fill="#FF0000" stroke="#FF0000" stroke-miterlimit="10" width="30" height="30"/>
<rect x="239.5" y="300.5" fill="#FF0000" stroke="#FF0000" stroke-miterlimit="10" width="30" height="30"/>
<rect x="269.5" y="300.5" fill="#FF0000" stroke="#FF0000" stroke-miterlimit="10" width="30" height="30"/>
<rect x="299.5" y="300.5" stroke="#000000" stroke-miterlimit="10" width="30" height="30"/>
<rect x="329.5" y="300.5" stroke="#000000" stroke-miterlimit="10" width="30" height="30"/>
<rect x="359.5" y="300.5" stroke="#000000" stroke-miterlimit="10" width="30" height="30"/>
<rect x="149.5" y="330.5" stroke="#000000" stroke-miterlimit="10" width="30" height="30"/>
<rect x="179.5" y="330.5" stroke="#000000" stroke-miterlimit="10" width="30" height="30"/>
<rect x="209.5" y="330.5" stroke="#000000" stroke-miterlimit="10" width="30" height="30"/>
<rect x="239.5" y="330.5" fill="#FF0000" stroke="#FF0000" stroke-miterlimit="10" width="30" height="30"/>
<rect x="269.5" y="330.5" stroke="#000000" stroke-miterlimit="10" width="30" height="30"/>
<rect x="299.5" y="330.5" stroke="#000000" stroke-miterlimit="10" width="30" height="30"/>
<rect x="329.5" y="330.5" stroke="#000000" stroke-miterlimit="10" width="30" height="30"/>
<rect x="179.5" y="360.5" stroke="#000000" stroke-miterlimit="10" width="30" height="30"/>
<rect x="209.5" y="360.5" stroke="#000000" stroke-miterlimit="10" width="30" height="30"/>
<rect x="239.5" y="360.5" stroke="#000000" stroke-miterlimit="10" width="30" height="30"/>
<rect x="269.5" y="360.5" stroke="#000000" stroke-miterlimit="10" width="30" height="30"/>
<rect x="299.5" y="360.5" stroke="#000000" stroke-miterlimit="10" width="30" height="30"/>
<rect x="209.5" y="390.5" stroke="#000000" stroke-miterlimit="10" width="30" height="30"/>
<rect x="239.5" y="390.5" stroke="#000000" stroke-miterlimit="10" width="30" height="30"/>
<rect x="269.5" y="390.5" stroke="#000000" stroke-miterlimit="10" width="30" height="30"/>
<rect x="239.5" y="420.5" stroke="#000000" stroke-miterlimit="10" width="30" height="30"/>
</svg>
